# xmcd
#
# Track frame offsets:
#	150
#	17792
#	36102
#	57923
#	75899
#	94544
#	120712
#	141363
#	158001
#	174138
#	190776
#	208083
#	226393
#	239186
#	255323
#
# Disc length: 3580 seconds
#
# Revision: 0
# Processed by: cddbd v1.5.2PL0 Copyright (c) Steve Scherf et al.
# Submitted via: audiograbber 1.83.01
#
DISCID=bb0dfa0f
DTITLE=Paul Millns - Footsteps
DYEAR=2001
DGENRE=Blues
TTITLE0=Old enough
TTITLE1=Home for the Weekend
TTITLE2=World on your Shoulders
TTITLE3=Poodle Avenue
TTITLE4=Gasoline heart
TTITLE5=Wind from the East
TTITLE6=Another Sunset Rise
TTITLE7=Following Footsteps
TTITLE8=Happy go lucky Joe
TTITLE9=Saying it back
TTITLE10=Who can really tell
TTITLE11=What's she doing now
TTITLE12=Demolition Kid
TTITLE13=Halfway happy Home
TTITLE14=Play on
EXTD=
EXTT0=
EXTT1=
EXTT2=
EXTT3=
EXTT4=
EXTT5=
EXTT6=
EXTT7=
EXTT8=
EXTT9=
EXTT10=
EXTT11=
EXTT12=
EXTT13=
EXTT14=
PLAYORDER=
